<?xml version="1.0" standalone="no"?>
<!DOCTYPE svg PUBLIC "-//W3C//DTD SVG 20010904//EN"
 "http://www.w3.org/TR/2001/REC-SVG-20010904/DTD/svg10.dtd">
<svg version="1.0" xmlns="http://www.w3.org/2000/svg"
 width="228.000000pt" height="228.000000pt" viewBox="0 0 228.000000 228.000000"
 preserveAspectRatio="xMidYMid meet">
<metadata>
Created by potrace 1.11, written by Peter Selinger 2001-2013
</metadata>
<g transform="translate(0.000000,228.000000) scale(0.100000,-0.100000)"
fill="#000000" stroke="none">
<path d="M1099 2236 c-2 -2 -33 -6 -69 -10 -341 -32 -679 -268 -847 -592 -308
-593 -7 -1343 623 -1553 148 -50 250 -64 404 -58 283 11 523 113 723 306 449
434 461 1116 29 1574 -158 167 -421 296 -667 326 -89 11 -188 15 -196 7z m286
-148 c239 -70 419 -251 496 -498 20 -64 24 -96 23 -210 0 -147 -7 -175 -89
-372 -20 -48 -44 -125 -55 -170 -17 -76 -18 -79 -19 -38 -1 33 -4 41 -11 30
-8 -13 -10 -13 -10 2 0 9 5 29 11 45 6 16 6 24 1 18 -16 -16 -42 -103 -42
-140 0 -21 -9 -44 -26 -64 -30 -36 -71 -41 -131 -16 -46 20 -147 19 -206 -1
-26 -9 -58 -29 -73 -47 -24 -29 -25 -32 -8 -44 23 -17 87 -16 244 1 69 8 127
13 129 11 3 -4 -11 -7 -77 -21 l-23 -5 21 -17 c18 -15 21 -24 15 -55 -12 -62
-33 -79 -96 -79 -37 1 -67 -6 -96 -21 -49 -25 -55 -37 -17 -29 24 4 25 2 22
-29 -2 -22 -8 -34 -18 -34 -8 0 -26 -12 -38 -28 -13 -15 -31 -27 -41 -27 -9 0
-22 -5 -28 -11 -8 -8 -16 -7 -31 2 -17 10 -23 10 -36 0 -14 -12 -19 -11 -34 3
-10 9 -22 13 -25 10 -4 -4 -14 -1 -22 6 -12 10 -21 10 -41 1 -14 -6 -27 -11
-29 -11 -3 0 -23 61 -41 127 -2 7 -13 13 -25 13 -12 0 -40 10 -63 21 -22 12
-47 25 -55 28 -40 20 -33 91 9 91 13 0 17 6 13 20 -5 19 0 20 85 20 50 0 97 3
105 6 11 4 17 -4 22 -28 4 -18 12 -36 18 -40 8 -5 8 -22 0 -60 -9 -45 -9 -57
5 -82 22 -37 35 -37 43 0 l6 29 11 -27 c13 -32 28 -35 53 -12 16 14 16 19 2
52 -8 19 -13 48 -11 64 3 15 1 28 -3 28 -12 0 -39 -43 -39 -62 0 -9 -4 -19 -9
-22 -5 -3 -9 0 -8 7 1 38 -5 59 -24 78 -16 16 -20 29 -16 54 7 41 -5 53 -98
96 -60 29 -83 34 -176 38 -115 6 -132 14 -169 74 -14 23 -16 36 -8 70 5 23 7
55 4 70 -4 17 -2 26 4 22 18 -11 10 12 -10 30 -11 10 -20 22 -20 27 0 4 245 8
545 8 300 0 545 -2 545 -5 0 -3 -10 -19 -22 -35 l-22 -30 -503 0 c-277 0 -503
-2 -503 -5 0 -11 68 -68 130 -109 75 -50 169 -89 255 -106 65 -13 95 -33 95
-62 0 -10 5 -18 10 -18 6 0 10 9 10 20 0 28 36 47 111 59 354 57 610 375 586
730 -10 149 -69 293 -167 405 -57 65 -127 124 -170 145 -21 10 -22 10 -8 -1 9
-7 25 -18 35 -25 14 -9 -26 -12 -194 -12 l-213 -1 0 35 0 34 158 3 157 3 -80
30 c-72 27 -91 30 -195 29 -125 0 -194 -10 -185 -25 4 -5 16 -9 28 -9 20 0 20
-1 2 -13 -14 -11 -16 -21 -11 -43 7 -28 7 -28 -13 -9 -17 14 -24 16 -33 7 -17
-17 -31 -15 -24 4 4 9 1 23 -5 30 -9 11 -6 16 12 23 13 5 18 10 10 10 -24 1
-175 -76 -196 -100 -11 -12 -14 -19 -7 -15 6 4 12 2 12 -3 0 -6 12 -11 28 -12
l27 0 -22 -15 c-18 -13 -20 -20 -13 -40 11 -27 8 -29 -20 -12 -15 10 -22 10
-32 0 -6 -6 -15 -12 -18 -12 -9 0 1 62 12 80 6 8 -24 -20 -66 -63 -83 -86
-142 -190 -173 -307 -23 -88 -23 -244 0 -335 17 -66 32 -101 106 -239 35 -67
38 -98 14 -166 -16 -45 -16 -49 2 -76 l18 -29 -21 19 c-28 25 -31 53 -10 102
22 51 15 80 -42 175 -23 38 -52 97 -65 132 -13 34 -24 57 -25 51 -1 -26 36
-126 72 -194 41 -78 44 -98 23 -197 -10 -45 0 -77 36 -118 34 -38 32 -44 -5
-20 -36 24 -46 61 -43 160 2 87 1 93 -40 180 -56 120 -73 196 -78 345 -7 243
63 421 228 576 112 106 233 167 378 193 85 16 243 5 334 -21z m-512 -109 c4
-16 3 -18 -9 -8 -7 6 -11 15 -8 20 8 13 11 11 17 -12z m85 -59 c24 0 25 -1 7
-20 -10 -11 -15 -28 -12 -40 6 -23 -3 -26 -21 -8 -10 10 -17 10 -34 -1 -19
-12 -20 -11 -16 13 4 20 0 30 -16 38 -20 12 -20 12 9 18 22 4 31 12 34 30 l4
25 11 -27 c7 -20 17 -28 34 -28z m-308 25 c0 -9 -6 -12 -15 -9 -8 4 -15 10
-15 15 0 5 7 9 15 9 8 0 15 -7 15 -15z m433 -5 c4 -14 14 -20 34 -20 l28 0
-22 -18 c-17 -12 -21 -23 -16 -41 5 -21 4 -22 -16 -12 -15 9 -26 9 -42 0 -19
-10 -20 -9 -14 12 6 17 2 27 -16 40 l-24 19 28 0 c20 0 30 6 34 20 3 11 9 20
13 20 4 0 10 -9 13 -20z m747 -75 c7 -9 13 -38 14 -66 1 -38 -1 -46 -9 -34 -5
10 -25 37 -42 60 -18 24 -33 56 -33 70 l0 26 28 -20 c16 -11 35 -27 42 -36z
m-1247 12 c15 15 5 -13 -11 -32 -17 -19 -56 -45 -67 -45 -2 0 0 11 5 25 7 18
6 25 -2 25 -6 0 -1 11 12 25 21 22 25 23 40 10 9 -8 20 -12 23 -8z m136 -87
c21 -5 22 -7 7 -19 -11 -9 -14 -21 -9 -40 6 -25 5 -25 -14 -9 -17 16 -21 16
-41 2 -21 -14 -22 -14 -16 16 4 19 2 30 -5 30 -6 0 -11 5 -11 10 0 6 7 10 15
10 9 0 21 12 28 26 l12 27 5 -24 c3 -14 15 -26 29 -29z m160 2 c23 -4 23 -4 2
-18 -17 -12 -19 -19 -10 -41 9 -25 9 -25 -14 -10 -22 14 -27 14 -46 1 -20 -14
-21 -14 -12 10 8 20 6 27 -12 40 l-22 15 26 0 c21 1 28 7 34 28 l6 27 12 -25
c7 -13 23 -25 36 -27z m154 -2 c21 -1 21 -1 3 -15 -14 -10 -17 -21 -11 -42 6
-27 6 -27 -14 -8 -17 14 -24 16 -33 7 -17 -17 -31 -15 -24 4 4 10 -1 25 -10
35 -16 18 -16 19 4 19 15 0 24 8 28 26 l7 27 14 -27 c8 -16 22 -26 36 -26z
m675 20 c12 -16 22 -32 22 -35 0 -3 -130 -5 -290 -5 l-290 0 0 35 0 35 268 0
268 0 22 -30z m-1235 -40 c3 -11 12 -20 21 -20 15 0 15 -3 1 -31 -9 -17 -19
-28 -22 -25 -4 3 -17 -1 -30 -9 -23 -15 -23 -15 -17 10 5 19 1 30 -12 40 -18
14 -18 14 4 15 15 0 26 7 29 20 3 11 9 20 13 20 4 0 10 -9 13 -20z m334 -100
c28 -1 28 -1 8 -18 -12 -10 -19 -26 -17 -40 3 -21 2 -22 -17 -10 -16 10 -23
10 -33 0 -18 -18 -27 -15 -21 8 3 12 -2 29 -12 40 -18 19 -17 20 8 20 18 0 28
7 33 22 l7 23 8 -23 c6 -15 17 -22 36 -22z m123 14 c0 -9 10 -14 27 -14 25 0
26 -1 8 -20 -10 -11 -15 -28 -12 -40 6 -22 -3 -26 -20 -9 -8 8 -17 8 -33 -1
-21 -11 -22 -10 -17 10 4 16 -1 28 -16 41 l-22 18 28 1 c20 0 30 6 34 20 6 22
23 18 23 -6z m177 -15 c10 -1 23 -1 28 0 6 1 -1 -7 -14 -17 -18 -14 -22 -24
-16 -41 6 -21 5 -22 -15 -11 -16 9 -25 9 -33 1 -18 -18 -29 -13 -22 11 6 16 1
26 -16 39 l-24 19 31 0 c24 0 33 5 38 23 l7 22 9 -22 c5 -13 17 -24 27 -24z
m-487 16 c0 -14 16 -19 50 -16 9 1 6 -5 -9 -17 -18 -14 -22 -24 -16 -41 6 -21
5 -22 -14 -12 -15 9 -27 9 -41 1 -19 -10 -20 -9 -15 13 4 14 2 28 -4 31 -18
11 -13 26 9 26 11 0 20 7 20 15 0 8 5 15 10 15 6 0 10 -7 10 -15z m-190 -55
c24 0 27 -18 4 -27 -11 -4 -14 -13 -9 -30 5 -22 4 -23 -16 -13 -15 9 -24 9
-32 1 -18 -18 -28 -12 -21 13 3 13 1 27 -5 30 -17 11 -13 26 8 26 11 0 21 9
25 23 l7 22 9 -22 c5 -13 18 -23 30 -23z m1377 3 l13 -33 -335 0 -335 0 0 35
0 35 322 -2 322 -3 13 -32z m244 -55 l29 -58 1 -394 0 -395 -30 -58 c-65 -127
-61 -157 -60 452 0 608 -4 578 60 453z m-1327 -36 c28 -4 28 -4 7 -18 -16 -12
-20 -21 -15 -41 7 -26 7 -26 -16 -10 -22 15 -25 15 -43 -1 -19 -16 -19 -16
-12 6 5 16 1 29 -11 43 -16 18 -16 19 5 19 14 0 26 10 34 26 l12 27 5 -24 c4
-17 14 -25 34 -27z m154 -2 c26 -1 26 -1 7 -16 -13 -10 -19 -24 -17 -42 3 -25
3 -26 -14 -10 -15 15 -19 15 -41 1 -23 -15 -23 -15 -14 10 8 21 6 28 -12 41
l-22 15 26 0 c21 1 29 8 34 29 l7 27 10 -27 c7 -21 16 -28 36 -28z m150 0 c24
0 24 -1 8 -19 -12 -13 -15 -27 -11 -42 7 -21 6 -21 -16 -6 -21 15 -24 15 -42
-1 -19 -16 -20 -16 -13 10 5 22 2 30 -16 40 -23 12 -23 12 7 18 22 4 31 12 34
30 l4 25 11 -27 c7 -20 17 -28 34 -28z m-457 0 c21 0 21 -1 5 -19 -12 -13 -15
-27 -11 -41 7 -21 6 -21 -17 -6 -14 9 -28 13 -33 9 -9 -9 2 74 12 90 3 6 10 1
14 -11 5 -14 17 -22 30 -22z m-248 -20 c4 -14 14 -20 33 -20 l28 0 -22 -16
c-17 -11 -21 -21 -16 -40 6 -24 5 -25 -15 -12 -17 11 -25 11 -42 -1 -20 -12
-21 -11 -16 10 4 15 0 30 -10 41 -15 17 -15 18 6 18 14 0 25 7 28 20 3 11 9
20 13 20 4 0 10 -9 13 -20z m97 -30 c0 -5 -2 -10 -4 -10 -3 0 -8 5 -11 10 -3
6 -1 10 4 10 6 0 11 -4 11 -10z m1424 -12 c13 -50 28 -48 -344 -48 l-350 0 0
35 0 35 344 0 344 0 6 -22z m-1037 -58 c28 -1 28 -1 8 -18 -12 -10 -19 -26
-17 -40 3 -21 2 -22 -17 -10 -16 10 -23 10 -33 0 -18 -18 -27 -15 -21 8 3 12
-2 29 -12 40 -18 19 -17 20 7 20 18 0 28 7 32 23 l7 22 9 -22 c7 -16 18 -23
37 -23z m151 0 c24 0 24 -1 8 -19 -11 -13 -15 -27 -11 -40 7 -23 -4 -28 -23
-9 -10 10 -17 10 -34 -1 -19 -12 -20 -11 -15 11 5 17 1 28 -16 40 l-22 18 28
0 c21 0 30 6 35 22 l5 22 10 -22 c7 -14 19 -22 35 -22z m-334 15 c3 -8 18 -15
33 -15 l28 0 -24 -19 c-18 -13 -22 -23 -16 -40 6 -21 5 -22 -14 -12 -16 9 -26
9 -42 0 -19 -10 -20 -9 -14 12 6 17 2 27 -16 40 l-24 19 33 0 c22 0 32 5 32
15 0 8 4 15 9 15 5 0 11 -7 15 -15z m456 0 c0 -10 10 -15 33 -15 l32 0 -24
-19 c-18 -13 -22 -23 -16 -40 6 -21 5 -22 -14 -12 -16 9 -26 9 -42 0 -19 -10
-20 -9 -14 12 6 17 2 27 -16 40 l-24 19 33 0 c22 0 32 5 32 15 0 8 5 15 10 15
6 0 10 -7 10 -15z m-550 -19 c0 -2 -7 -6 -15 -10 -8 -3 -15 -1 -15 4 0 6 7 10
15 10 8 0 15 -2 15 -4z m-280 -31 c6 -16 17 -25 32 -25 21 -1 22 -1 5 -11 -13
-8 -17 -18 -13 -35 7 -25 -3 -31 -21 -13 -8 8 -17 8 -31 0 -19 -10 -21 -9 -19
24 2 19 8 40 15 47 7 7 12 18 12 25 0 21 10 15 20 -12z m159 -34 c7 -47 6 -51
-10 -46 -9 3 -20 1 -24 -5 -12 -19 -25 -10 -19 14 4 17 0 27 -13 35 -17 10
-16 10 5 11 15 0 26 9 33 26 13 35 18 28 28 -35z m1437 -43 c-3 -13 -6 -29 -6
-35 0 -10 -140 -13 -664 -13 l-664 0 -4 25 -5 25 323 0 c209 0 324 4 324 10 0
6 124 10 351 10 l351 0 -6 -22z m-1493 -68 c19 0 19 -1 3 -19 -12 -14 -16 -27
-10 -43 6 -20 5 -21 -9 -9 -11 8 -27 11 -43 7 -22 -6 -25 -4 -20 10 4 10 -1
25 -10 35 -16 18 -16 19 5 19 15 0 25 8 29 22 l5 22 15 -22 c8 -12 24 -22 35
-22z m-147 -15 c-12 -9 -17 -22 -14 -39 3 -14 1 -23 -3 -20 -5 3 -9 21 -9 40
0 29 3 34 23 34 21 -1 21 -1 3 -15z m214 5 c0 -5 -2 -10 -4 -10 -3 0 -8 5 -11
10 -3 6 -1 10 4 10 6 0 11 -4 11 -10z m-170 -96 c0 -8 9 -14 19 -14 26 0 35
-16 15 -24 -11 -4 -15 -14 -12 -31 6 -27 -1 -32 -19 -14 -8 8 -17 8 -33 -1
-21 -11 -22 -10 -16 13 4 17 1 27 -9 31 -22 8 -18 26 6 26 12 0 23 8 26 20 6
22 23 18 23 -6z m168 -14 c5 0 9 -18 8 -39 -1 -35 -3 -38 -19 -29 -13 7 -23 6
-30 -1 -18 -18 -25 -13 -19 14 3 17 -1 27 -12 31 -24 9 -19 24 8 24 16 0 26 7
30 23 l7 22 9 -22 c5 -13 13 -23 18 -23z m1392 36 c0 -1 -5 -17 -11 -35 l-11
-31 -613 0 c-575 0 -613 1 -618 18 -2 9 -8 25 -12 35 -7 16 27 17 629 17 350
0 636 -2 636 -4z m-1490 -152 c0 -9 11 -14 32 -14 l32 0 -23 -16 c-17 -12 -21
-22 -17 -40 6 -23 5 -23 -14 -12 -16 10 -24 10 -41 0 -20 -13 -21 -12 -15 12
5 19 1 29 -16 40 l-22 16 28 0 c19 0 29 6 33 20 6 22 23 18 23 -6z m150 -45
c7 -22 4 -27 -22 -37 -27 -10 -28 -9 -23 9 4 13 0 28 -11 40 -16 18 -16 19 9
19 15 0 27 6 28 13 1 12 3 7 19 -44z m-250 27 c0 -2 -7 -9 -15 -16 -12 -10
-15 -10 -15 4 0 9 7 16 15 16 8 0 15 -2 15 -4z m1625 -386 l-3 -205 -39 -33
-38 -34 -5 154 c-4 119 -2 158 9 176 8 13 15 59 17 110 2 56 11 112 26 157
l23 70 6 -95 c4 -52 5 -187 4 -300z m-1309 304 c8 -26 11 -44 7 -41 -8 8 -33
77 -33 91 0 20 12 -4 26 -50z m-286 -19 c6 -16 17 -25 32 -25 21 0 21 -1 3
-13 -13 -11 -16 -21 -11 -42 l7 -27 -28 22 c-36 28 -42 47 -29 82 13 34 14 34
26 3z m181 -25 c19 0 20 -2 8 -17 -8 -9 -13 -24 -11 -35 4 -21 -8 -24 -26 -6
-9 9 -17 7 -33 -8 l-22 -19 7 29 c5 21 2 32 -11 42 -17 13 -17 13 4 14 13 0
28 10 34 22 l12 22 8 -22 c5 -13 17 -22 30 -22z m1119 -44 c0 -3 -24 -18 -54
-35 l-53 -31 -262 0 -262 0 -59 30 c-33 17 -60 32 -60 35 0 3 169 5 375 5 206
0 375 -2 375 -4z m-985 -148 c11 -15 29 -31 40 -37 11 -5 14 -10 7 -10 -26 -2
-71 39 -82 74 -7 20 -8 49 -3 72 l8 38 5 -55 c3 -32 13 -66 25 -82z m-245 86
c0 -9 11 -14 32 -14 l32 0 -23 -16 c-17 -12 -21 -22 -16 -41 5 -22 4 -23 -15
-13 -12 6 -28 9 -36 6 -9 -3 -14 1 -14 14 0 10 -4 22 -10 25 -16 10 -12 22 10
28 11 3 20 13 20 22 0 9 5 13 10 10 6 -3 10 -13 10 -21z m174 -59 c7 -35 6
-37 -8 -25 -13 10 -22 10 -40 2 -21 -9 -23 -8 -19 9 3 11 -2 28 -12 39 -18 19
-17 20 7 20 18 0 27 7 32 23 l6 22 14 -26 c7 -14 16 -43 20 -64z m1227 13 c-6
-15 -20 -32 -32 -39 l-22 -12 21 28 c12 15 25 43 29 64 7 31 8 33 11 10 2 -14
-2 -37 -7 -51z m15 -43 c-9 -14 -24 -25 -33 -25 -13 0 -11 6 10 28 15 15 28
35 28 43 1 9 3 7 6 -4 3 -10 -3 -29 -11 -42z m-1305 -55 c21 0 21 -1 6 -18
-11 -11 -14 -26 -10 -42 6 -24 5 -24 -13 -8 -14 12 -24 14 -37 7 -14 -8 -17
-6 -17 12 0 12 -8 28 -17 35 -16 12 -16 13 8 14 19 0 29 7 33 23 l7 22 9 -22
c6 -14 18 -23 31 -23z m145 -25 c-2 -5 1 -21 6 -34 8 -23 8 -23 -14 -9 -21 14
-26 14 -46 0 -22 -14 -22 -14 -13 11 8 21 6 28 -12 41 l-22 15 28 0 c15 1 27
6 27 11 0 6 11 3 25 -7 13 -10 23 -22 21 -28z m134 7 c0 -13 -12 -22 -22 -16
-10 6 -1 24 13 24 5 0 9 -4 9 -8z m50 -22 c0 -5 -7 -10 -15 -10 -8 0 -15 5
-15 10 0 6 7 10 15 10 8 0 15 -4 15 -10z m40 -4 c0 -11 -19 -15 -25 -6 -3 5 1
10 9 10 9 0 16 -2 16 -4z m835 -41 c-3 -14 -7 -37 -10 -51 -10 -44 -17 -19
-10 30 4 25 11 46 16 46 5 0 7 -11 4 -25z m-50 -71 c-23 -56 -29 -34 -9 33 15
47 19 53 22 32 2 -15 -4 -44 -13 -65z m-1088 35 c10 -1 23 -1 28 0 6 1 -1 -7
-14 -17 -17 -14 -22 -24 -16 -41 6 -19 4 -20 -17 -10 -13 6 -33 24 -46 40 -23
28 -23 29 -3 29 12 0 23 9 27 22 l7 23 8 -23 c5 -12 16 -23 26 -23z m152 -55
c9 -34 9 -35 -8 -20 -22 20 -30 20 -53 -1 -18 -16 -18 -16 -9 8 7 19 4 29 -12
47 l-20 22 26 0 c18 0 28 7 33 22 6 20 7 19 20 -10 7 -18 18 -48 23 -68z m48
56 c11 -42 1 -54 -17 -21 -12 23 -13 61 -2 61 4 0 13 -18 19 -40z m59 -32 c6
-10 4 -10 -9 1 -9 7 -17 25 -16 40 l1 26 8 -27 c4 -14 11 -32 16 -40z m28 27
c5 -22 4 -26 -4 -15 -5 8 -10 24 -10 34 0 26 6 18 14 -19z m-196 -127 c27 -3
27 -3 5 -15 -18 -11 -25 -10 -43 5 -18 14 -21 24 -15 43 l8 24 9 -27 c7 -19
17 -28 36 -30z m122 16 c0 -9 10 -14 27 -14 25 0 25 -1 9 -19 -12 -13 -15 -27
-11 -41 6 -19 5 -20 -14 -8 -17 11 -25 10 -42 0 -20 -13 -21 -12 -15 12 5 19
1 29 -16 40 l-22 16 26 0 c18 0 29 7 33 20 7 22 25 18 25 -6z m900 -58 l0 -84
-40 -16 c-22 -9 -43 -16 -45 -16 -3 0 -5 38 -5 85 0 74 2 85 18 85 9 0 28 7
42 14 14 8 26 14 28 15 1 1 2 -37 2 -83z m-759 -15 c-9 -2 -22 -8 -30 -14 -11
-10 -13 -8 -7 11 6 16 2 29 -10 43 -16 18 -16 19 5 19 12 0 25 8 28 17 5 13
10 6 18 -27 10 -39 9 -46 -4 -49z m46 27 c-2 -13 -4 -5 -4 17 -1 22 1 32 4 23
2 -10 2 -28 0 -40z m533 45 c-1 -5 -7 -19 -15 -33 l-14 -25 -1 26 c0 14 3 29
7 32 9 9 23 9 23 0z m-460 -61 c0 -13 -4 -21 -9 -17 -6 3 -11 -12 -13 -32 -2
-21 -7 -38 -13 -38 -16 0 -18 53 -3 102 11 39 14 42 25 27 7 -10 13 -28 13
-42z m412 -51 c1 -18 -4 -37 -10 -43 -9 -9 -12 -4 -12 19 0 33 10 67 17 59 2
-2 5 -18 5 -35z m-372 -54 c0 -27 -4 -46 -9 -43 -13 8 -23 73 -15 98 10 33 24
2 24 -55z m-196 22 c21 0 21 0 -1 -11 -16 -8 -30 -7 -52 1 -28 12 -28 14 -13
31 16 17 18 17 31 -1 7 -11 23 -19 35 -20z m507 -56 c-17 -32 -24 9 -9 58 l13
44 3 -42 c2 -24 -1 -51 -7 -60z m-431 53 c0 -8 13 -20 30 -28 16 -7 32 -19 35
-27 4 -11 3 -11 -9 -2 -8 7 -24 10 -36 6 -16 -5 -20 -2 -20 15 0 11 -7 23 -15
26 -8 4 -15 10 -15 15 0 5 7 9 15 9 8 0 15 -6 15 -14z m190 -10 c0 -35 -18
-78 -30 -71 -11 7 -14 78 -3 88 15 15 33 6 33 -17z m58 -35 c3 -37 1 -42 -15
-39 -20 4 -28 28 -19 65 10 37 31 22 34 -26z m78 25 c9 -38 1 -61 -24 -64 -19
-3 -22 1 -22 26 0 61 33 88 46 38z m58 2 c10 -39 7 -68 -8 -68 -22 0 -29 17
-22 56 8 39 21 44 30 12z"/>
<path d="M471 1234 c0 -11 3 -14 6 -6 3 7 2 16 -1 19 -3 4 -6 -2 -5 -13z"/>
<path d="M1373 2233 c9 -2 23 -2 30 0 6 3 -1 5 -18 5 -16 0 -22 -2 -12 -5z"/>
<path d="M898 2223 c7 -3 16 -2 19 1 4 3 -2 6 -13 5 -11 0 -14 -3 -6 -6z"/>
<path d="M1420 2226 c0 -2 9 -6 20 -9 11 -3 18 -1 14 4 -5 9 -34 13 -34 5z"/>
<path d="M1470 2217 c0 -3 20 -12 45 -20 45 -16 65 -14 23 2 -43 16 -68 22
-68 18z"/>
<path d="M750 2180 c-8 -5 -10 -10 -5 -10 6 0 17 5 25 10 8 5 11 10 5 10 -5 0
-17 -5 -25 -10z"/>
<path d="M658 2139 c-32 -16 -58 -32 -58 -34 0 -5 119 52 129 61 13 12 -22 -1
-71 -27z"/>
<path d="M1651 2146 c10 -9 69 -36 69 -32 0 6 -55 36 -66 36 -4 0 -5 -2 -3 -4z"/>
<path d="M1730 2107 c0 -2 26 -21 58 -41 31 -20 45 -27 30 -14 -30 26 -88 62
-88 55z"/>
<path d="M564 2084 c-18 -14 -18 -15 4 -4 12 6 22 13 22 15 0 8 -5 6 -26 -11z"/>
<path d="M499 2042 c-47 -36 -143 -122 -135 -122 3 0 30 21 59 48 29 26 68 59
87 74 19 15 33 27 30 27 -3 0 -21 -12 -41 -27z"/>
<path d="M1850 2026 c0 -2 8 -10 18 -17 15 -13 16 -12 3 4 -13 16 -21 21 -21
13z"/>
<path d="M1890 1997 c0 -1 35 -36 78 -77 l77 -75 -75 78 c-69 71 -80 82 -80
74z"/>
<path d="M319 1873 l-34 -38 38 34 c34 33 42 41 34 41 -2 0 -19 -17 -38 -37z"/>
<path d="M264 1808 l-19 -23 23 19 c21 18 27 26 19 26 -2 0 -12 -10 -23 -22z"/>
<path d="M2070 1800 c12 -16 24 -30 26 -30 3 0 -4 14 -16 30 -12 17 -24 30
-26 30 -3 0 4 -13 16 -30z"/>
<path d="M2172 1635 c12 -24 23 -43 26 -41 4 5 -36 86 -43 86 -3 0 5 -20 17
-45z"/>
<path d="M166 1653 c-6 -14 -5 -15 5 -6 7 7 10 15 7 18 -3 3 -9 -2 -12 -12z"/>
<path d="M126 1575 c-9 -26 -7 -32 5 -12 6 10 9 21 6 23 -2 3 -7 -2 -11 -11z"/>
<path d="M2210 1550 c6 -11 13 -20 16 -20 2 0 0 9 -6 20 -6 11 -13 20 -16 20
-2 0 0 -9 6 -20z"/>
<path d="M106 1523 c-6 -14 -5 -15 5 -6 7 7 10 15 7 18 -3 3 -9 -2 -12 -12z"/>
<path d="M2226 1507 c3 -10 9 -15 12 -12 3 3 0 11 -7 18 -10 9 -11 8 -5 -6z"/>
<path d="M86 1463 c-6 -14 -5 -15 5 -6 7 7 10 15 7 18 -3 3 -9 -2 -12 -12z"/>
<path d="M2241 1464 c0 -11 3 -14 6 -6 3 7 2 16 -1 19 -3 4 -6 -2 -5 -13z"/>
<path d="M71 1404 c0 -11 3 -14 6 -6 3 7 2 16 -1 19 -3 4 -6 -2 -5 -13z"/>
<path d="M61 1364 c0 -11 3 -14 6 -6 3 7 2 16 -1 19 -3 4 -6 -2 -5 -13z"/>
<path d="M77 819 c4 -13 8 -18 11 -10 2 7 -1 18 -6 23 -8 8 -9 4 -5 -13z"/>
<path d="M2231 763 c-1 -6 -4 -20 -7 -30 -5 -17 -5 -17 6 0 6 10 9 23 6 30 -3
9 -5 9 -5 0z"/>
<path d="M110 725 c0 -5 5 -17 10 -25 5 -8 10 -10 10 -5 0 6 -5 17 -10 25 -5
8 -10 11 -10 5z"/>
<path d="M130 676 c0 -11 50 -106 55 -106 3 0 -7 24 -21 53 -28 55 -34 65 -34
53z"/>
<path d="M2195 669 c-4 -6 -5 -12 -2 -15 2 -3 7 2 10 11 7 17 1 20 -8 4z"/>
<path d="M2150 580 c-6 -11 -8 -20 -6 -20 3 0 10 9 16 20 6 11 8 20 6 20 -3 0
-10 -9 -16 -20z"/>
<path d="M240 476 c0 -2 8 -10 18 -17 15 -13 16 -12 3 4 -13 16 -21 21 -21 13z"/>
<path d="M2069 453 c-13 -16 -12 -17 4 -4 16 13 21 21 13 21 -2 0 -10 -8 -17
-17z"/>
<path d="M270 436 c0 -2 8 -10 18 -17 15 -13 16 -12 3 4 -13 16 -21 21 -21 13z"/>
<path d="M2029 403 l-24 -28 28 24 c25 23 32 31 24 31 -2 0 -14 -12 -28 -27z"/>
<path d="M360 335 c35 -36 67 -65 69 -65 3 0 -24 29 -59 65 -35 36 -67 65 -69
65 -3 0 24 -29 59 -65z"/>
<path d="M1984 348 l-19 -23 23 19 c21 18 27 26 19 26 -2 0 -12 -10 -23 -22z"/>
<path d="M1939 303 c-13 -16 -12 -17 4 -4 16 13 21 21 13 21 -2 0 -10 -8 -17
-17z"/>
<path d="M1889 263 l-24 -28 28 24 c15 14 27 26 27 28 0 8 -8 1 -31 -24z"/>
<path d="M465 240 c10 -11 20 -20 23 -20 3 0 -3 9 -13 20 -10 11 -20 20 -23
20 -3 0 3 -9 13 -20z"/>
<path d="M1839 223 c-13 -16 -12 -17 4 -4 16 13 21 21 13 21 -2 0 -10 -8 -17
-17z"/>
<path d="M504 211 c7 -11 46 -35 46 -28 0 3 -12 12 -26 22 -15 9 -23 12 -20 6z"/>
<path d="M1790 189 c-22 -18 -22 -19 -3 -10 12 6 25 16 28 21 9 15 3 12 -25
-11z"/>
<path d="M630 135 c0 -2 23 -16 50 -30 28 -14 50 -23 50 -20 0 2 -22 16 -50
30 -27 14 -50 23 -50 20z"/>
<path d="M1650 110 c-9 -6 -10 -10 -3 -10 6 0 15 5 18 10 8 12 4 12 -15 0z"/>
<path d="M1590 85 c-14 -8 -20 -14 -15 -14 6 0 21 6 35 14 14 8 21 14 15 14
-5 0 -21 -6 -35 -14z"/>
<path d="M747 79 c7 -7 15 -10 18 -7 3 3 -2 9 -12 12 -14 6 -15 5 -6 -5z"/>
<path d="M780 66 c0 -2 7 -7 16 -10 8 -3 12 -2 9 4 -6 10 -25 14 -25 6z"/>
<path d="M838 43 c7 -3 16 -2 19 1 4 3 -2 6 -13 5 -11 0 -14 -3 -6 -6z"/>
<path d="M878 33 c7 -3 16 -2 19 1 4 3 -2 6 -13 5 -11 0 -14 -3 -6 -6z"/>
<path d="M918 23 c7 -3 16 -2 19 1 4 3 -2 6 -13 5 -11 0 -14 -3 -6 -6z"/>
<path d="M1288 3 c7 -3 16 -2 19 1 4 3 -2 6 -13 5 -11 0 -14 -3 -6 -6z"/>
</g>
</svg>
